<?xml version="1.0" encoding="utf-8"?>
<!-- Generator: Adobe Illustrator 15.1.0, SVG Export Plug-In  -->
<!DOCTYPE svg PUBLIC "-//W3C//DTD SVG 1.1//EN" "http://www.w3.org/Graphics/SVG/1.1/DTD/svg11.dtd" [
	<!ENTITY ns_flows "http://ns.adobe.com/Flows/1.0/">
]>
<svg version="1.1"
	 xmlns="http://www.w3.org/2000/svg" xmlns:xlink="http://www.w3.org/1999/xlink" xmlns:a="http://ns.adobe.com/AdobeSVGViewerExtensions/3.0/"
	 x="0px" y="0px" width="1000px" height="1000px" viewBox="-40.424 -35.009 1000 1000"
	 enable-background="new -40.424 -35.009 1000 1000" xml:space="preserve">
<defs>
</defs>
<line fill="none" stroke="#49B7AC" x1="0.722" y1="444.169" x2="444.17" y2="0.722"/>
<line fill="none" stroke="#49B7AC" x1="444.537" y1="0.354" x2="888.723" y2="444.547"/>
<line fill="none" stroke="#49B7AC" x1="888.723" y1="444.555" x2="444.546" y2="888.731"/>
<line fill="none" stroke="#49B7AC" x1="444.546" y1="888.731" x2="0.354" y2="444.539"/>
<line fill="none" stroke="#49B7AC" x1="0.354" y1="444.539" x2="282.284" y2="281.652"/>
<line fill="none" stroke="#49B7AC" x1="282.284" y1="281.652" x2="444.546" y2="0.362"/>
<line fill="none" stroke="#49B7AC" x1="444.546" y1="0.362" x2="539.529" y2="348.762"/>
<line fill="none" stroke="#49B7AC" x1="888.723" y1="444.547" x2="539.529" y2="348.762"/>
<line fill="none" stroke="#49B7AC" x1="444.546" y1="888.731" x2="608.23" y2="607.589"/>
<line fill="none" stroke="#49B7AC" x1="888.723" y1="444.555" x2="608.23" y2="607.589"/>
<line fill="none" stroke="#49B7AC" x1="444.546" y1="888.731" x2="351.808" y2="538.082"/>
<line fill="none" stroke="#49B7AC" x1="1.089" y1="443.801" x2="351.808" y2="538.082"/>
<line fill="none" stroke="#49B7AC" x1="282.284" y1="281.652" x2="351.808" y2="538.082"/>
<line fill="none" stroke="#49B7AC" x1="282.284" y1="281.652" x2="539.529" y2="348.762"/>
<line fill="none" stroke="#49B7AC" x1="539.529" y1="348.762" x2="608.23" y2="607.589"/>
<line fill="none" stroke="#49B7AC" x1="351.808" y1="538.082" x2="608.23" y2="607.589"/>
</svg>
